<?xml version="1.0" encoding="utf-8"?>
<!-- Generator: Adobe Illustrator 19.0.0, SVG Export Plug-In . SVG Version: 6.00 Build 0)  -->
<svg version="1.1" id="Layer_1" xmlns="http://www.w3.org/2000/svg" xmlns:xlink="http://www.w3.org/1999/xlink" x="0px" y="0px"
	 viewBox="0 0 320 400" enable-background="new 0 0 320 400" xml:space="preserve">
<g id="XMLID_18_">
	<path id="XMLID_5_" fill="#34495E" stroke="#34495E" stroke-miterlimit="10" d="M201.8,234.7c-11.7,0-21.1,9.5-21.1,21.1v138.8h2.4
		v-2.3l37.5,0v2.3h2.4V255.8C222.9,244.1,213.4,234.7,201.8,234.7z"/>
	<path id="XMLID_4_" fill="#ECF0F1" stroke="#BDC3C7" stroke-miterlimit="10" d="M201.8,238.3c-9.8,0-17.8,7.9-17.8,17.8v137h35.5
		V256C219.5,246.2,211.6,238.3,201.8,238.3z"/>
	<line id="XMLID_1_" fill="none" stroke="#BDC3C7" stroke-miterlimit="10" x1="188.5" y1="393" x2="188.5" y2="356.5"/>
	<line id="XMLID_2_" fill="none" stroke="#BDC3C7" stroke-miterlimit="10" x1="188.5" y1="350.8" x2="188.5" y2="291.3"/>
	<line id="XMLID_3_" fill="none" stroke="#BDC3C7" stroke-miterlimit="10" x1="193" y1="393" x2="193" y2="334.8"/>
	<line id="XMLID_6_" fill="none" stroke="#BDC3C7" stroke-miterlimit="10" x1="193" y1="329" x2="193" y2="280.5"/>
	<line id="XMLID_7_" fill="none" stroke="#BDC3C7" stroke-miterlimit="10" x1="197.5" y1="393" x2="197.5" y2="383.3"/>
	<line id="XMLID_8_" fill="none" stroke="#BDC3C7" stroke-miterlimit="10" x1="203.3" y1="393" x2="203.3" y2="371"/>
	<line id="XMLID_9_" fill="none" stroke="#BDC3C7" stroke-miterlimit="10" x1="203.3" y1="363.9" x2="203.3" y2="304.8"/>
	<line id="XMLID_10_" fill="none" stroke="#BDC3C7" stroke-miterlimit="10" x1="209" y1="393" x2="209" y2="347.8"/>
	<line id="XMLID_11_" fill="none" stroke="#BDC3C7" stroke-miterlimit="10" x1="209" y1="342" x2="209" y2="295.8"/>
	<line id="XMLID_12_" fill="none" stroke="#BDC3C7" stroke-miterlimit="10" x1="197.5" y1="365.5" x2="197.5" y2="297.3"/>
	<line id="XMLID_13_" fill="none" stroke="#BDC3C7" stroke-miterlimit="10" x1="203.3" y1="298.8" x2="203.3" y2="262.3"/>
	<line id="XMLID_14_" fill="none" stroke="#BDC3C7" stroke-miterlimit="10" x1="214.5" y1="393" x2="214.5" y2="383.3"/>
	<line id="XMLID_15_" fill="none" stroke="#BDC3C7" stroke-miterlimit="10" x1="214.5" y1="376.8" x2="214.5" y2="323.5"/>
	<line id="XMLID_16_" fill="none" stroke="#BDC3C7" stroke-miterlimit="10" x1="214.5" y1="318.9" x2="214.5" y2="282.4"/>
	<path id="XMLID_17_" fill="#FFFFFF" stroke="#BDC3C7" stroke-miterlimit="10" d="M218.9,256.1h-34.3c0-9.5,7.7-17.1,17.1-17.1
		S218.9,246.7,218.9,256.1z"/>
</g>
<path id="XMLID_36_" fill="#34495E" stroke="#34495E" stroke-miterlimit="10" d="M85.8,235.7c-11.7,0-21.1,9.5-21.1,21.1v138.8H67
	v-2.3l37.5,0v2.3h2.4V256.8C106.9,245.1,97.4,235.7,85.8,235.7z"/>
<path id="XMLID_35_" fill="#ECF0F1" stroke="#BDC3C7" stroke-miterlimit="10" d="M85.8,239.3c-9.8,0-17.8,7.9-17.8,17.8v137h35.5
	V257C103.5,247.2,95.6,239.3,85.8,239.3z"/>
<line id="XMLID_34_" fill="none" stroke="#BDC3C7" stroke-miterlimit="10" x1="72.5" y1="394" x2="72.5" y2="357.5"/>
<line id="XMLID_33_" fill="none" stroke="#BDC3C7" stroke-miterlimit="10" x1="72.5" y1="351.8" x2="72.5" y2="292.3"/>
<line id="XMLID_32_" fill="none" stroke="#BDC3C7" stroke-miterlimit="10" x1="77" y1="394" x2="77" y2="335.8"/>
<line id="XMLID_31_" fill="none" stroke="#BDC3C7" stroke-miterlimit="10" x1="77" y1="330" x2="77" y2="281.5"/>
<line id="XMLID_30_" fill="none" stroke="#BDC3C7" stroke-miterlimit="10" x1="81.5" y1="394" x2="81.5" y2="384.3"/>
<line id="XMLID_29_" fill="none" stroke="#BDC3C7" stroke-miterlimit="10" x1="87.3" y1="394" x2="87.3" y2="372"/>
<line id="XMLID_28_" fill="none" stroke="#BDC3C7" stroke-miterlimit="10" x1="87.3" y1="364.9" x2="87.3" y2="305.8"/>
<line id="XMLID_27_" fill="none" stroke="#BDC3C7" stroke-miterlimit="10" x1="93" y1="394" x2="93" y2="348.8"/>
<line id="XMLID_26_" fill="none" stroke="#BDC3C7" stroke-miterlimit="10" x1="93" y1="343" x2="93" y2="296.8"/>
<line id="XMLID_25_" fill="none" stroke="#BDC3C7" stroke-miterlimit="10" x1="81.5" y1="366.5" x2="81.5" y2="298.3"/>
<line id="XMLID_24_" fill="none" stroke="#BDC3C7" stroke-miterlimit="10" x1="87.3" y1="299.8" x2="87.3" y2="263.3"/>
<line id="XMLID_23_" fill="none" stroke="#BDC3C7" stroke-miterlimit="10" x1="98.5" y1="394" x2="98.5" y2="384.3"/>
<line id="XMLID_22_" fill="none" stroke="#BDC3C7" stroke-miterlimit="10" x1="98.5" y1="377.8" x2="98.5" y2="324.5"/>
<line id="XMLID_21_" fill="none" stroke="#BDC3C7" stroke-miterlimit="10" x1="98.5" y1="319.9" x2="98.5" y2="283.4"/>
<path id="XMLID_20_" fill="#FFFFFF" stroke="#BDC3C7" stroke-miterlimit="10" d="M102.9,257.1H68.6c0-9.5,7.7-17.1,17.1-17.1
	S102.9,247.7,102.9,257.1z"/>
</svg>
