<?xml version="1.0" encoding="utf-8"?>
<!-- Generator: Adobe Illustrator 19.0.0, SVG Export Plug-In . SVG Version: 6.00 Build 0)  -->
<svg version="1.1" id="Layer_1" xmlns="http://www.w3.org/2000/svg" xmlns:xlink="http://www.w3.org/1999/xlink" x="0px" y="0px" width="320" height="400"
	 viewBox="128 -168 320 400" enable-background="new 128 -168 320 400" xml:space="preserve">
<rect id="XMLID_2_" x="128" y="-168" fill="#ECF0F1" width="320" height="400"/>
<path id="XMLID_1_" fill="#3498DB" d="M282.3-0.1H158c-3.1,0-5.7-2.5-5.7-5.7v-86.9c0-3.1,2.5-5.7,5.7-5.7h124.3
	c3.1,0,5.7,2.5,5.7,5.7v86.9C288-2.7,285.5-0.1,282.3-0.1z"/>
<path id="XMLID_3_" fill="#34495E" d="M435-83.4H305.7c-0.6,0-1-0.5-1-1v-8.3c0-0.6,0.5-1,1-1H435c0.6,0,1,0.5,1,1v8.3
	C436-83.8,435.5-83.4,435-83.4z"/>
<path id="XMLID_4_" fill="#34495E" d="M393.6-66h-87.9c-0.6,0-1-0.5-1-1v-8.3c0-0.6,0.5-1,1-1h87.9c0.6,0,1,0.5,1,1v8.3
	C394.7-66.5,394.2-66,393.6-66z"/>
<path id="XMLID_5_" fill="#34495E" d="M435-66h-27c-0.6,0-1-0.5-1-1v-8.3c0-0.6,0.5-1,1-1h27c0.6,0,1,0.5,1,1v8.3
	C436-66.5,435.5-66,435-66z"/>
<path id="XMLID_6_" fill="#95A5A6" d="M388.1-49.3h-82.4c-0.6,0-1-0.5-1-1v-3.1c0-0.6,0.5-1,1-1h82.4c0.6,0,1,0.5,1,1v3.1
	C389.2-49.7,388.7-49.3,388.1-49.3z"/>
<path id="XMLID_7_" fill="#95A5A6" d="M435-49.3h-36.3c-0.6,0-1-0.5-1-1v-3.1c0-0.6,0.5-1,1-1H435c0.6,0,1,0.5,1,1v3.1
	C436-49.7,435.5-49.3,435-49.3z"/>
<path id="XMLID_8_" fill="#95A5A6" d="M345.9-36.6h-40.2c-0.6,0-1-0.5-1-1v-3.1c0-0.6,0.5-1,1-1h40.2c0.6,0,1,0.5,1,1v3.1
	C346.9-37.1,346.5-36.6,345.9-36.6z"/>
<path id="XMLID_9_" fill="#717C7C" d="M435-36.6h-76.4c-0.6,0-1-0.5-1-1v-3.1c0-0.6,0.5-1,1-1H435c0.6,0,1,0.5,1,1v3.1
	C436-37.1,435.5-36.6,435-36.6z"/>
<path id="XMLID_10_" fill="#95A5A6" d="M369.3-23.3h-63.6c-0.6,0-1-0.5-1-1v-3.1c0-0.6,0.5-1,1-1h63.6c0.6,0,1,0.5,1,1v3.1
	C370.3-23.7,369.9-23.3,369.3-23.3z"/>
<path id="XMLID_11_" fill="#95A5A6" d="M435-23.3h-51.6c-0.6,0-1-0.5-1-1v-3.1c0-0.6,0.5-1,1-1H435c0.6,0,1,0.5,1,1v3.1
	C436-23.7,435.5-23.3,435-23.3z"/>
<path id="XMLID_12_" fill="#717C7C" d="M323-10.3h-17.3c-0.6,0-1-0.5-1-1v-3.1c0-0.6,0.5-1,1-1H323c0.6,0,1,0.5,1,1v3.1
	C324-10.7,323.5-10.3,323-10.3z"/>
<path id="XMLID_13_" fill="#95A5A6" d="M435-10.3H334.7c-0.6,0-1-0.5-1-1v-3.1c0-0.6,0.5-1,1-1H435c0.6,0,1,0.5,1,1v3.1
	C436-10.7,435.5-10.3,435-10.3z"/>
<path id="XMLID_14_" fill="#34495E" d="M338-121.7H210c-0.6,0-1-0.5-1-1v-10.5c0-0.6,0.5-1,1-1h128c0.6,0,1,0.5,1,1v10.5
	C339-122.2,338.5-121.7,338-121.7z"/>
<path id="XMLID_15_" fill="#E74C3C" d="M407-121.7h-54.7c-0.6,0-1-0.5-1-1v-10.5c0-0.6,0.5-1,1-1H407c0.6,0,1,0.5,1,1v10.5
	C408.1-122.2,407.6-121.7,407-121.7z"/>
<path id="XMLID_16_" fill="#34495E" d="M195.5-121.7h-39.3c-0.6,0-1-0.5-1-1v-10.5c0-0.6,0.5-1,1-1h39.3c0.6,0,1,0.5,1,1v10.5
	C196.5-122.2,196-121.7,195.5-121.7z"/>
<path id="XMLID_30_" fill="#2ECC71" d="M304,114.2h124.3c3.1,0,5.7-2.5,5.7-5.7V21.6c0-3.1-2.5-5.7-5.7-5.7H304
	c-3.1,0-5.7,2.5-5.7,5.7v86.9C298.3,111.7,300.9,114.2,304,114.2z"/>
<path id="XMLID_29_" fill="#34495E" d="M151.4,31h129.3c0.6,0,1-0.5,1-1v-8.2c0-0.6-0.5-1-1-1H151.4c-0.6,0-1,0.5-1,1V30
	C150.3,30.5,150.8,31,151.4,31z"/>
<path id="XMLID_28_" fill="#34495E" d="M192.7,48.3h87.9c0.6,0,1-0.5,1-1V39c0-0.6-0.5-1-1-1h-87.9c-0.6,0-1,0.5-1,1v8.3
	C191.7,47.8,192.1,48.3,192.7,48.3z"/>
<path id="XMLID_27_" fill="#E74C3C" d="M151.4,48.3h26.9c0.6,0,1-0.5,1-1V39c0-0.6-0.5-1-1-1h-26.9c-0.6,0-1,0.5-1,1v8.3
	C150.3,47.8,150.8,48.3,151.4,48.3z"/>
<path id="XMLID_26_" fill="#95A5A6" d="M198.2,65.1h82.4c0.6,0,1-0.5,1-1V61c0-0.6-0.5-1-1-1h-82.4c-0.6,0-1,0.5-1,1v3.1
	C197.2,64.6,197.6,65.1,198.2,65.1z"/>
<path id="XMLID_25_" fill="#95A5A6" d="M151.4,65.1h36.3c0.6,0,1-0.5,1-1V61c0-0.6-0.5-1-1-1h-36.3c-0.6,0-1,0.5-1,1v3.1
	C150.3,64.6,150.8,65.1,151.4,65.1z"/>
<path id="XMLID_24_" fill="#95A5A6" d="M240.5,77.7h40.2c0.6,0,1-0.5,1-1v-3.1c0-0.6-0.5-1-1-1h-40.2c-0.6,0-1,0.5-1,1v3.1
	C239.4,77.3,239.9,77.7,240.5,77.7z"/>
<path id="XMLID_23_" fill="#95A5A6" d="M151.4,77.7h76.4c0.6,0,1-0.5,1-1v-3.1c0-0.6-0.5-1-1-1h-76.4c-0.6,0-1,0.5-1,1v3.1
	C150.3,77.3,150.8,77.7,151.4,77.7z"/>
<path id="XMLID_22_" fill="#717C7C" d="M217,91.1h63.6c0.6,0,1-0.5,1-1V87c0-0.6-0.5-1-1-1H217c-0.6,0-1,0.5-1,1v3.1
	C216,90.6,216.5,91.1,217,91.1z"/>
<path id="XMLID_21_" fill="#95A5A6" d="M151.4,91.1H203c0.6,0,1-0.5,1-1V87c0-0.6-0.5-1-1-1h-51.6c-0.6,0-1,0.5-1,1v3.1
	C150.3,90.6,150.8,91.1,151.4,91.1z"/>
<path id="XMLID_20_" fill="#95A5A6" d="M263.4,104.1h17.3c0.6,0,1-0.5,1-1V100c0-0.6-0.5-1-1-1h-17.3c-0.6,0-1,0.5-1,1v3.1
	C262.3,103.6,262.8,104.1,263.4,104.1z"/>
<path id="XMLID_19_" fill="#95A5A6" d="M151.4,104.1h100.3c0.6,0,1-0.5,1-1V100c0-0.6-0.5-1-1-1H151.4c-0.6,0-1,0.5-1,1v3.1
	C150.3,103.6,150.8,104.1,151.4,104.1z"/>
<path id="XMLID_17_" fill="#95A5A6" d="M237.9,156.3h100.3c0.6,0,1-0.5,1-1v-3.1c0-0.6-0.5-1-1-1H237.9c-0.6,0-1,0.5-1,1v3.1
	C236.8,155.8,237.3,156.3,237.9,156.3z"/>
<path id="XMLID_31_" fill="#2ECC71" d="M152.3-5.8c0.5,3.4,2.1,5.5,5.7,5.7h98.8l-56.5-51.7l-48,30C152.3-21.8,152.3-5.8,152.3-5.8z
	"/>
<path id="XMLID_18_" fill="#27AE60" d="M231.6-23.3l25.3-16.9l31.2,24.8v9.6c-0.6,3.4-2.2,5.6-5.7,5.7h-25.5L231.6-23.3z"/>
<circle id="XMLID_32_" fill="#F1C40F" cx="235.3" cy="-66" r="10.8"/>
<polygon id="XMLID_33_" fill="#ECF0F1" points="200.3,-51.8 220.2,-33.7 209,-35.7 203.5,-28.4 198.7,-36.6 189.3,-26 192.2,-37.5 
	184.3,-36.6 186.8,-41.8 184.3,-41.8 "/>
<polygon id="XMLID_34_" fill="#BDC3C7" points="256.8,-40.2 269.1,-30.4 265,-31.9 266.9,-24.9 258.1,-29.2 253.8,-23.3 
	252.4,-30.9 246.5,-29.8 249.4,-33.7 246.9,-33.5 "/>
<path id="XMLID_35_" fill="#27AE60" d="M381.3,16l-44.8,98.2h91.8c3,0,5.7-2.4,5.7-5.7V21.6c0-3.1-2.5-5.7-5.7-5.7h-47V16L381.3,16z
	"/>
<path id="XMLID_36_" fill="#34495E" d="M335.4,63.9H397c0.6,0,1-0.5,1-1v-8.3c0-0.6-0.5-1-1-1h-61.6c-0.6,0-1,0.5-1,1v8.3
	C334.3,63.4,334.8,63.9,335.4,63.9z"/>
<path id="XMLID_37_" fill="#2A4051" d="M318,81.7h100.2c0.6,0,1-0.5,1-1v-8.3c0-0.6-0.5-1-1-1H318c-0.6,0-1,0.5-1,1v8.3
	C317,81.3,317.5,81.7,318,81.7z"/>
<path id="XMLID_38_" fill="#95A5A6" d="M207.9,169.5h160.3c1,0,1.6-0.5,1.6-1v-3.1c0-0.6-0.8-1-1.6-1H207.9c-1,0-1.6,0.5-1.6,1v3.1
	C206.1,169,206.9,169.5,207.9,169.5z"/>
<path id="XMLID_39_" fill="#95A5A6" d="M237.2,184.3h34.5c0.2,0,0.3-0.5,0.3-1v-3.1c0-0.6-0.2-1-0.3-1h-34.5c-0.2,0-0.3,0.5-0.3,1
	v3.1C236.9,183.8,237,184.3,237.2,184.3z"/>
<path id="XMLID_40_" fill="#95A5A6" d="M284.1,184.3h54.6c0.3,0,0.5-0.5,0.5-1v-3.1c0-0.6-0.3-1-0.5-1h-54.6c-0.3,0-0.5,0.5-0.5,1
	v3.1C283.5,183.8,283.8,184.3,284.1,184.3z"/>
<path id="XMLID_41_" fill="#F1C40F" stroke="#F39C12" stroke-miterlimit="10" d="M265.2,211.8h45.6c0.3,0,0.5-1.1,0.5-2.1V203
	c0-1.3-0.2-2.1-0.5-2.1h-45.6c-0.3,0-0.5,1.1-0.5,2.1v6.6C264.7,210.7,265,211.8,265.2,211.8z"/>
<path id="XMLID_42_" fill="#E67E22" d="M270.8,207.8h34.5c0.2,0,0.3-0.3,0.3-0.6v-1.8c0-0.3-0.2-0.6-0.3-0.6h-34.5
	c-0.2,0-0.3,0.3-0.3,0.6v1.8C270.4,207.5,270.6,207.8,270.8,207.8z"/>
</svg>
