<?xml version="1.0" encoding="utf-8"?>
<!-- Generator: Adobe Illustrator 19.0.0, SVG Export Plug-In . SVG Version: 6.00 Build 0)  -->
<svg version="1.1" id="Layer_1" xmlns="http://www.w3.org/2000/svg" xmlns:xlink="http://www.w3.org/1999/xlink" x="0px" y="0px" width="750" height="500"
	 viewBox="0 0 750 500" enable-background="new 0 0 750 500" xml:space="preserve">
<rect id="XMLID_2_" x="187.1" y="144.8" fill="#ECF0F1" width="352.7" height="355.2"/>
<path id="XMLID_1_" fill="#3498DB" d="M357.2,329.8h-137c-3.4,0-6.3-2.8-6.3-6.3v-95.8c0-3.4,2.8-6.3,6.3-6.3h137
	c3.4,0,6.3,2.8,6.3,6.3v95.8C363.5,327,360.7,329.8,357.2,329.8z"/>
<path id="XMLID_3_" fill="#34495E" d="M525.5,238H383c-0.7,0-1.1-0.6-1.1-1.1v-9.1c0-0.7,0.6-1.1,1.1-1.1h142.5
	c0.7,0,1.1,0.6,1.1,1.1v9.1C526.6,237.6,526.1,238,525.5,238z"/>
<path id="XMLID_4_" fill="#34495E" d="M479.9,257.2H383c-0.7,0-1.1-0.6-1.1-1.1v-9.1c0-0.7,0.6-1.1,1.1-1.1h96.9
	c0.7,0,1.1,0.6,1.1,1.1v9.1C481.1,256.6,480.5,257.2,479.9,257.2z"/>
<path id="XMLID_5_" fill="#34495E" d="M525.5,257.2h-29.8c-0.7,0-1.1-0.6-1.1-1.1v-9.1c0-0.7,0.6-1.1,1.1-1.1h29.8
	c0.7,0,1.1,0.6,1.1,1.1v9.1C526.6,256.6,526.1,257.2,525.5,257.2z"/>
<path id="XMLID_6_" fill="#95A5A6" d="M473.8,275.6H383c-0.7,0-1.1-0.6-1.1-1.1v-3.4c0-0.7,0.6-1.1,1.1-1.1h90.8
	c0.7,0,1.1,0.6,1.1,1.1v3.4C475,275.2,474.5,275.6,473.8,275.6z"/>
<path id="XMLID_7_" fill="#95A5A6" d="M525.5,275.6h-40c-0.7,0-1.1-0.6-1.1-1.1v-3.4c0-0.7,0.6-1.1,1.1-1.1h40
	c0.7,0,1.1,0.6,1.1,1.1v3.4C526.6,275.2,526.1,275.6,525.5,275.6z"/>
<path id="XMLID_8_" fill="#95A5A6" d="M427.3,289.6H383c-0.7,0-1.1-0.6-1.1-1.1v-3.4c0-0.7,0.6-1.1,1.1-1.1h44.3
	c0.7,0,1.1,0.6,1.1,1.1v3.4C428.4,289,428,289.6,427.3,289.6z"/>
<path id="XMLID_9_" fill="#717C7C" d="M525.5,289.6h-84.2c-0.7,0-1.1-0.6-1.1-1.1v-3.4c0-0.7,0.6-1.1,1.1-1.1h84.2
	c0.7,0,1.1,0.6,1.1,1.1v3.4C526.6,289,526.1,289.6,525.5,289.6z"/>
<path id="XMLID_10_" fill="#95A5A6" d="M453.1,304.3H383c-0.7,0-1.1-0.6-1.1-1.1v-3.4c0-0.7,0.6-1.1,1.1-1.1h70.1
	c0.7,0,1.1,0.6,1.1,1.1v3.4C454.2,303.8,453.8,304.3,453.1,304.3z"/>
<path id="XMLID_11_" fill="#95A5A6" d="M525.5,304.3h-56.9c-0.7,0-1.1-0.6-1.1-1.1v-3.4c0-0.7,0.6-1.1,1.1-1.1h56.9
	c0.7,0,1.1,0.6,1.1,1.1v3.4C526.6,303.8,526.1,304.3,525.5,304.3z"/>
<path id="XMLID_12_" fill="#717C7C" d="M402.1,318.6H383c-0.7,0-1.1-0.6-1.1-1.1v-3.4c0-0.7,0.6-1.1,1.1-1.1h19.1
	c0.7,0,1.1,0.6,1.1,1.1v3.4C403.2,318.1,402.6,318.6,402.1,318.6z"/>
<path id="XMLID_13_" fill="#95A5A6" d="M525.5,318.6H415c-0.7,0-1.1-0.6-1.1-1.1v-3.4c0-0.7,0.6-1.1,1.1-1.1h110.5
	c0.7,0,1.1,0.6,1.1,1.1v3.4C526.6,318.1,526.1,318.6,525.5,318.6z"/>
<path id="XMLID_14_" fill="#34495E" d="M418.6,195.8H277.5c-0.7,0-1.1-0.6-1.1-1.1v-11.6c0-0.7,0.6-1.1,1.1-1.1h141.1
	c0.7,0,1.1,0.6,1.1,1.1v11.6C419.7,195.3,419.1,195.8,418.6,195.8z"/>
<path id="XMLID_15_" fill="#E74C3C" d="M494.6,195.8h-60.3c-0.7,0-1.1-0.6-1.1-1.1v-11.6c0-0.7,0.6-1.1,1.1-1.1h60.3
	c0.7,0,1.1,0.6,1.1,1.1v11.6C495.9,195.3,495.3,195.8,494.6,195.8z"/>
<path id="XMLID_16_" fill="#34495E" d="M261.5,195.8h-43.3c-0.7,0-1.1-0.6-1.1-1.1v-11.6c0-0.7,0.6-1.1,1.1-1.1h43.3
	c0.7,0,1.1,0.6,1.1,1.1v11.6C262.6,195.3,262.1,195.8,261.5,195.8z"/>
<path id="XMLID_30_" fill="#2ECC71" d="M381.1,455.8h137c3.4,0,6.3-2.8,6.3-6.3v-95.8c0-3.4-2.8-6.3-6.3-6.3h-137
	c-3.4,0-6.3,2.8-6.3,6.3v95.8C374.8,453,377.7,455.8,381.1,455.8z"/>
<path id="XMLID_29_" fill="#34495E" d="M212.9,364.1h142.5c0.7,0,1.1-0.6,1.1-1.1v-9c0-0.7-0.6-1.1-1.1-1.1H212.9
	c-0.7,0-1.1,0.6-1.1,1.1v9C211.7,363.6,212.3,364.1,212.9,364.1z"/>
<path id="XMLID_28_" fill="#34495E" d="M258.5,383.2h96.9c0.7,0,1.1-0.6,1.1-1.1v-9.1c0-0.7-0.6-1.1-1.1-1.1h-96.9
	c-0.7,0-1.1,0.6-1.1,1.1v9.1C257.4,382.6,257.8,383.2,258.5,383.2z"/>
<path id="XMLID_27_" fill="#E74C3C" d="M212.9,383.2h29.6c0.7,0,1.1-0.6,1.1-1.1v-9.1c0-0.7-0.6-1.1-1.1-1.1h-29.6
	c-0.7,0-1.1,0.6-1.1,1.1v9.1C211.7,382.6,212.3,383.2,212.9,383.2z"/>
<path id="XMLID_26_" fill="#95A5A6" d="M264.5,401.7h90.8c0.7,0,1.1-0.6,1.1-1.1v-3.4c0-0.7-0.6-1.1-1.1-1.1h-90.8
	c-0.7,0-1.1,0.6-1.1,1.1v3.4C263.4,401.1,263.9,401.7,264.5,401.7z"/>
<path id="XMLID_25_" fill="#95A5A6" d="M212.9,401.7h40c0.7,0,1.1-0.6,1.1-1.1v-3.4c0-0.7-0.6-1.1-1.1-1.1h-40
	c-0.7,0-1.1,0.6-1.1,1.1v3.4C211.7,401.1,212.3,401.7,212.9,401.7z"/>
<path id="XMLID_24_" fill="#95A5A6" d="M311.1,415.6h44.3c0.7,0,1.1-0.6,1.1-1.1v-3.4c0-0.7-0.6-1.1-1.1-1.1h-44.3
	c-0.7,0-1.1,0.6-1.1,1.1v3.4C309.9,415.1,310.5,415.6,311.1,415.6z"/>
<path id="XMLID_23_" fill="#95A5A6" d="M212.9,415.6h84.2c0.7,0,1.1-0.6,1.1-1.1v-3.4c0-0.7-0.6-1.1-1.1-1.1h-84.2
	c-0.7,0-1.1,0.6-1.1,1.1v3.4C211.7,415.1,212.3,415.6,212.9,415.6z"/>
<path id="XMLID_22_" fill="#717C7C" d="M285.2,430.3h70.1c0.7,0,1.1-0.6,1.1-1.1v-3.4c0-0.7-0.6-1.1-1.1-1.1h-70.1
	c-0.7,0-1.1,0.6-1.1,1.1v3.4C284.1,429.8,284.7,430.3,285.2,430.3z"/>
<path id="XMLID_21_" fill="#95A5A6" d="M212.9,430.3h56.9c0.7,0,1.1-0.6,1.1-1.1v-3.4c0-0.7-0.6-1.1-1.1-1.1h-56.9
	c-0.7,0-1.1,0.6-1.1,1.1v3.4C211.7,429.8,212.3,430.3,212.9,430.3z"/>
<path id="XMLID_20_" fill="#95A5A6" d="M336.4,444.7h19.1c0.7,0,1.1-0.6,1.1-1.1v-3.4c0-0.7-0.6-1.1-1.1-1.1h-19.1
	c-0.7,0-1.1,0.6-1.1,1.1v3.4C335.2,444.1,335.7,444.7,336.4,444.7z"/>
<path id="XMLID_19_" fill="#95A5A6" d="M212.9,444.7h110.5c0.7,0,1.1-0.6,1.1-1.1v-3.4c0-0.7-0.6-1.1-1.1-1.1H212.9
	c-0.7,0-1.1,0.6-1.1,1.1v3.4C211.7,444.1,212.3,444.7,212.9,444.7z"/>
<path id="XMLID_17_" fill="#95A5A6" d="M308.3,485.9h110.5c0.7,0,1.1-0.6,1.1-1.1v-3.4c0-0.7-0.6-1.1-1.1-1.1H308.3
	c-0.7,0-1.1,0.6-1.1,1.1v3.4C307.1,485.4,307.7,485.9,308.3,485.9z"/>
<path id="XMLID_31_" fill="#2ECC71" d="M213.9,323.5c0.6,3.7,2.3,6.1,6.3,6.3h108.9l-62.3-57l-52.9,33.1
	C213.9,305.9,213.9,323.5,213.9,323.5z"/>
<path id="XMLID_18_" fill="#27AE60" d="M301.3,304.3l27.9-18.6l34.4,27.3v10.6c-0.7,3.7-2.4,6.2-6.3,6.3h-28.1L301.3,304.3z"/>
<circle id="XMLID_32_" fill="#F1C40F" cx="305.4" cy="257.2" r="11.9"/>
<polygon id="XMLID_33_" fill="#ECF0F1" points="266.8,272.8 288.8,292.8 276.4,290.6 270.4,298.6 265.1,289.6 254.7,301.3 
	257.9,288.6 249.2,289.6 251.9,283.9 249.2,283.9 "/>
<polygon id="XMLID_34_" fill="#BDC3C7" points="329.1,285.6 342.7,296.4 338.1,294.8 340.2,302.5 330.5,297.8 325.8,304.3 
	324.3,295.9 317.7,297.1 320.9,292.8 318.2,293 "/>
<path id="XMLID_35_" fill="#27AE60" d="M466.3,347.6l-49.4,108.2h101.2c3.3,0,6.3-2.6,6.3-6.3v-95.8c0-3.4-2.8-6.3-6.3-6.3h-51.8
	V347.6z"/>
<path id="XMLID_36_" fill="#34495E" d="M415.7,400.4h67.9c0.7,0,1.1-0.6,1.1-1.1v-9.1c0-0.7-0.6-1.1-1.1-1.1h-67.9
	c-0.7,0-1.1,0.6-1.1,1.1v9.1C414.5,399.8,415.1,400.4,415.7,400.4z"/>
<path id="XMLID_37_" fill="#2A4051" d="M396.6,420H507c0.7,0,1.1-0.6,1.1-1.1v-9.1c0-0.7-0.6-1.1-1.1-1.1H396.6
	c-0.7,0-1.1,0.6-1.1,1.1v9.1C395.4,419.5,396,420,396.6,420z"/>
<polygon id="XMLID_39_" fill="#C2C5C6" points="187.1,144.8 475,104.3 475,144.8 "/>
<polyline id="XMLID_38_" fill="#DBDBDB" points="475,104.3 205.9,77.1 205.9,142.1 "/>
<rect id="XMLID_40_" x="578" y="296.9" fill="#95A5A6" width="131" height="9"/>
<rect id="XMLID_41_" x="640" y="279.5" fill="#C2C5C6" width="110" height="9"/>
<rect id="XMLID_42_" x="695" y="314.1" fill="#C2C5C6" width="55" height="9"/>
<rect id="XMLID_45_" x="41" y="41" fill="#95A5A6" width="131" height="9"/>
<rect id="XMLID_44_" x="0" y="23.5" fill="#C2C5C6" width="110" height="9"/>
<rect id="XMLID_43_" x="0" y="58.1" fill="#C2C5C6" width="55" height="9"/>
<g id="XMLID_46_">
	
		<rect id="XMLID_48_" x="185.4" y="42.9" transform="matrix(-0.7071 0.7071 -0.7071 -0.7071 369.5645 -62.0787)" fill="#F1C40F" width="24.5" height="5.1"/>
	
		<rect id="XMLID_49_" x="185.4" y="42.9" transform="matrix(0.7071 0.7071 -0.7071 0.7071 90.0605 -126.4254)" fill="#F1C40F" width="24.5" height="5.1"/>
</g>
<g id="XMLID_47_">
	
		<rect id="XMLID_51_" x="592.4" y="273.1" transform="matrix(-0.7071 0.7071 -0.7071 -0.7071 1227.0931 43.0388)" fill="#F1C40F" width="24.5" height="5.1"/>
	
		<rect id="XMLID_50_" x="592.4" y="273.1" transform="matrix(0.7071 0.7071 -0.7071 0.7071 372.013 -346.8015)" fill="#F1C40F" width="24.5" height="5.1"/>
</g>
<g id="XMLID_52_">
	
		<rect id="XMLID_54_" x="656.7" y="320.5" transform="matrix(-0.7071 0.7071 -0.7071 -0.7071 1370.5116 78.4899)" fill="#F1C40F" width="24.5" height="5.1"/>
	
		<rect id="XMLID_53_" x="656.7" y="320.5" transform="matrix(0.7071 0.7071 -0.7071 0.7071 424.4027 -378.4244)" fill="#F1C40F" width="24.5" height="5.1"/>
</g>
</svg>
